<svg width="50" height="49" viewBox="0 0 50 49" fill="none" xmlns="http://www.w3.org/2000/svg">
<path d="M33.3333 26.5417C39.7708 20.8046 45.8333 15.435 45.8333 10.8208C45.8333 7.04375 42.8125 4.08334 38.9583 4.08334C36.7917 4.08334 34.6875 5.08375 33.3333 6.63542C31.9583 5.08375 29.875 4.08334 27.7083 4.08334C23.8541 4.08334 20.8333 7.04375 20.8333 10.8208C20.8333 15.435 26.8958 20.8046 33.3333 26.5417ZM27.7083 8.16667C28.625 8.16667 29.5625 8.59542 30.1666 9.28959L33.3333 12.9442L36.5 9.28959C37.1042 8.59542 38.0417 8.16667 38.9583 8.16667C40.5 8.16667 41.6667 9.31 41.6667 10.8208C41.6667 13.1075 37.4166 17.2929 33.3333 21.0087C29.25 17.2929 25 13.0871 25 10.8208C25 9.31 26.1666 8.16667 27.7083 8.16667Z" fill="white"/>
<path d="M39.5833 32.6667H35.4166C35.4166 30.2167 33.8541 28.0117 31.5208 27.1542L18.6875 22.4583H2.08331V44.9167H14.5833V41.9767L29.1666 45.9375L45.8333 40.8333V38.7917C45.8333 35.4025 43.0416 32.6667 39.5833 32.6667ZM6.24998 40.8333V26.5417H10.4166V40.8333H6.24998ZM29.1041 41.6704L14.5833 37.73V26.5417H17.9375L30.0625 30.9721C30.7708 31.2375 31.25 31.9113 31.25 32.6667C31.25 32.6667 27.1041 32.5646 26.4583 32.3604L21.5 30.7475L20.1875 34.6267L25.1458 36.2396C26.2083 36.5867 27.3125 36.7704 28.4375 36.7704H39.5833C40.3958 36.7704 41.125 37.24 41.4583 37.9138L29.1041 41.6704Z" fill="white"/>
</svg>
